<?xml version="1.0" encoding="UTF-8" standalone="no"?>
<svg
   id="Ebene_1"
   version="1.1"
   viewBox="0 0 60.330589 44.632729"
   sodipodi:docname="SAW-Logo-signet_farbig_RGB.svg"
   inkscape:version="1.4.2 (1:1.4.2+202505120737+ebf0e940d0)"
   width="60.330589"
   height="44.632729"
   xmlns:inkscape="http://www.inkscape.org/namespaces/inkscape"
   xmlns:sodipodi="http://sodipodi.sourceforge.net/DTD/sodipodi-0.dtd"
   xmlns="http://www.w3.org/2000/svg"
   xmlns:svg="http://www.w3.org/2000/svg">
  <sodipodi:namedview
     id="namedview56"
     pagecolor="#ffffff"
     bordercolor="#666666"
     borderopacity="1.0"
     inkscape:showpageshadow="2"
     inkscape:pageopacity="0.0"
     inkscape:pagecheckerboard="0"
     inkscape:deskcolor="#d1d1d1"
     inkscape:zoom="1"
     inkscape:cx="82"
     inkscape:cy="46"
     inkscape:window-width="1920"
     inkscape:window-height="1043"
     inkscape:window-x="1080"
     inkscape:window-y="308"
     inkscape:window-maximized="1"
     inkscape:current-layer="Ebene_1" />
  <!-- Generator: Adobe Illustrator 29.8.0, SVG Export Plug-In . SVG Version: 2.1.1 Build 160)  -->
  <defs
     id="defs1">
    <style
       id="style1">
      .st0 {
        fill: #5ac82d;
      }

      .st1 {
        fill: #007d40;
      }

      .st2 {
        fill: #acea00;
      }

      .st3 {
        fill: #fff;
      }

      .st4 {
        fill: #8bcc00;
      }

      .st5 {
        fill: #1eba00;
      }
    </style>
  </defs>
  <g
     id="g56"
     transform="translate(-30.781412,-10.883397)">
    <path
       class="st1"
       d="m 83.934051,55.516125 h -6.5466 C 77.09269,55.154797 76.793167,54.793468 76.488892,54.436897 66.557236,42.86977 52.227882,36.128231 37.03804,35.838226 c -0.342323,-0.0095 -5.914303,-0.0095 -6.256624,-0.0095 v -5.229687 c 0.342321,0 5.914301,0 6.256624,0.0048 16.715973,0.294761 32.495361,7.70191 43.415924,20.429048 1.240853,1.440556 2.400894,2.93816 3.480087,4.483296 z"
       id="path45" />
    <path
       class="st1"
       d="m 42.485157,21.29409 v 5.108032 C 58.31271,27.902906 73.02932,35.194359 83.89431,46.79464 h 6.955688 C 78.78701,32.07119 61.342743,22.939833 42.485157,21.29409 Z"
       id="path46" />
    <path
       class="st2"
       d="m 37.03804,30.603785 c 15.189842,-0.290003 29.519196,-7.074034 39.450852,-18.641161 0.304283,-0.35657 0.603797,-0.717899 0.898559,-1.079227 h 6.5466 c -1.0792,1.545135 -2.239234,3.042739 -3.480094,4.483295 -10.920556,12.727138 -26.881859,20.166984 -43.597828,20.461746 -0.342324,0.0048 -6.074717,2.78e-4 -6.074717,2.78e-4 V 30.59903 c 0,0 6.256624,0.0048 6.256628,0.0048 z"
       id="path47" />
    <path
       class="st4"
       d="m 60.070042,30.607361 c 2.025756,-0.91333 3.985653,-1.934603 5.897701,-3.071566 -2.032044,-0.938721 -4.096951,-1.775926 -6.213039,-2.518236 -2.439942,1.216431 -4.935322,2.235645 -7.536091,3.065601 2.683471,0.675476 5.286854,1.517123 7.851429,2.524201 z"
       id="path48" />
    <path
       class="st4"
       d="m 36.917484,35.829739 c 5.586914,-0.09851 11.08374,-1.012513 16.342041,-2.638001 -5.190613,-1.594299 -10.621155,-2.489014 -16.160156,-2.58667 l -6.256592,-0.0048 v 5.229675 c 0.200012,0 2.183655,6.1e-5 3.868286,0.002 1.115174,1.22e-4 2.072754,-3.66e-4 2.206421,-0.0022 z"
       id="path49" />
    <path
       class="st2"
       d="M 59.292225,14.202232 C 54.67577,18.078331 48.855152,20.782677 42.485157,21.29409 v 5.108032 c 9.970947,-1.058593 18.531128,-5.136108 24.528133,-12.19989 0,0 -7.721069,0 -7.721065,0 z"
       id="path50" />
    <path
       class="st4"
       d="m 42.485165,21.294065 v 5.108033 C 46.743038,25.950071 50.783188,24.931644 54.436813,23.381107 50.55632,22.355778 46.535335,21.64752 42.485165,21.294065 Z"
       id="path51" />
    <path
       class="st1"
       d="m 59.327694,52.717895 c -4.469895,-3.48991 -10.37846,-7.49578 -23.961682,-6.777587 l 9.92e-4,-5.5 c 18.358612,-0.729401 25.251725,5.561561 31.681702,12.277587 z"
       id="path52" />
    <path
       class="st0"
       d="M 83.836853,19.315584 C 71.763062,32.299225 54.453606,40.440308 35.367001,40.440308 l -9.92e-4,5.5 c 22.453613,0 42.612934,-10.397915 55.745991,-26.624724 z"
       id="path53" />
    <path
       class="st5"
       d="m 71.254188,36.304237 c 1.645447,-0.95288 3.24907,-1.971408 4.808518,-3.047702 -1.668274,-1.136292 -3.378777,-2.197625 -5.135124,-3.18438 -1.707031,1.087952 -3.472016,2.107307 -5.28067,3.038826 1.920837,0.971252 3.788917,2.035477 5.607276,3.193256 z"
       id="path54" />
    <path
       class="st5"
       d="m 59.949894,35.711285 c -2.554382,1.021667 -5.173409,1.89038 -7.870918,2.591796 2.756592,0.86792 5.408764,1.952992 7.984447,3.25359 2.097168,-0.770019 4.128235,-1.628471 6.129212,-2.583488 -2.024475,-1.218079 -4.089661,-2.298764 -6.242741,-3.261898 z"
       id="path55" />
    <path
       class="st5"
       d="m 38.474972,45.86615 c 5.565246,-0.239136 10.985672,-1.113014 16.161636,-2.557289 -4.338562,-1.879395 -9.867752,-3.028771 -17.436416,-2.91732 -0.610962,0.01678 -1.218384,0.04877 -1.833191,0.04877 l -9.77e-4,5.5 c 1.090332,-0.05768 2.114258,-0.07471 3.108948,-0.07416 z"
       id="path56" />
  </g>
</svg>
