<?xml version="1.0" encoding="UTF-8"?>
<svg id="Layer_1" data-name="Layer 1" xmlns="http://www.w3.org/2000/svg" viewBox="0 0 322.97 336.02">
  <defs>
    <style>
      .cls-1 {
        fill: #00406f;
      }
    </style>
  </defs>
  <path class="cls-1" d="M44.9,305.54c.03-.23.04-.47.04-.7,0-.44-.37-.88-1.12-1.32-.94-.52-1.94-.92-2.98-1.2-1.4-.39-2.82-.7-4.26-.91-1.67-.25-3.36-.38-5.05-.37-1.75.01-3.5.21-5.21.58-1.76.36-3.45,1.01-5,1.9-1.5.87-2.77,2.07-3.72,3.52-1.93,3.3-1.93,7.38,0,10.67.95,1.45,2.22,2.65,3.72,3.52,1.56.9,3.25,1.54,5,1.9,1.71.37,3.46.57,5.21.58,1.14-.04,2.27-.17,3.39-.37,1.56-.25,3.11-.6,4.63-1.03,1.4-.39,2.77-.89,4.09-1.49,1.19-.55,1.78-1.13,1.78-1.74.01-.23-.05-.46-.16-.66-.12-.19-.23-.38-.33-.58l.91-.58,8.52,12.99-.99.58c-.07-.23-.24-.43-.45-.54-.22-.09-.46-.13-.7-.12-.8.12-1.58.35-2.32.7-1.48.57-2.98,1.07-4.51,1.49-2.14.59-4.31,1.06-6.49,1.41-2.76.43-5.56.64-8.35.62-3.32,0-6.63-.43-9.84-1.28-3.15-.8-6.12-2.18-8.77-4.05-2.58-1.83-4.72-4.2-6.29-6.95-3.2-6.09-3.2-13.36,0-19.44,1.56-2.75,3.71-5.12,6.29-6.95,2.66-1.88,5.63-3.3,8.77-4.18,3.2-.93,6.51-1.4,9.84-1.41,2.86-.03,5.72.15,8.56.54,2.05.29,4.08.69,6.08,1.2,1.6.44,2.84.81,3.72,1.12.64.25,1.3.4,1.98.45.5,0,.96-.25,1.24-.66l.91.25-7.45,13.65-.83-.58c.06-.18.1-.35.12-.54Z"/>
  <path class="cls-1" d="M109.05,323.57c.3-.58.47-1.21.5-1.86h.99v14.31h-.99c0-.58-.17-1.14-.5-1.61-.29-.21-.64-.32-.99-.29h-43.18v-.99c.69,0,1.36-.18,1.94-.54.25-.25.38-.6.37-.95v-38.55c.01-.35-.12-.7-.37-.95-.59-.36-1.26-.54-1.94-.54v-.99h17.04v.99c-.69,0-1.36.18-1.94.54-.25.25-.38.6-.37.95v30.94h28.46c.39.03.76-.15.99-.46Z"/>
  <path class="cls-1" d="M132.19,332.92c.37.18.79.25,1.2.21v.99h-14.64v-.99c.48-.06.94-.24,1.32-.54.37-.39.65-.86.83-1.37.11-.28.39-1.02.83-2.23.44-1.21,1.02-2.74,1.74-4.59.72-1.85,1.52-3.9,2.4-6.16.88-2.26,1.77-4.56,2.65-6.91.88-2.34,1.75-4.63,2.61-6.87.85-2.23,1.61-4.23,2.27-6l1.61-4.3c.41-1.1.62-1.68.62-1.74,0-.28-.18-.47-.54-.58-.37-.11-.74-.2-1.12-.25v-.99h21.59v.99c-.37.04-.73.12-1.08.25-.28.11-.41.39-.41.83.22.73.48,1.45.79,2.15.52,1.32,1.2,3.05,2.03,5.17.83,2.12,1.78,4.52,2.85,7.2,1.08,2.67,2.19,5.4,3.35,8.19,1.16,2.78,2.27,5.5,3.35,8.15,1.08,2.65,2.05,5.02,2.94,7.11.28.71.65,1.38,1.12,1.98.31.33.75.51,1.2.5v.99h-16.3v-.99c1.05-.06,1.57-.39,1.57-.99-.12-.38-.25-.75-.41-1.12-.28-.69-.58-1.46-.91-2.32-.33-.85-.65-1.67-.95-2.44-.22-.51-.4-1.04-.54-1.57h-19.61c-.55,1.49-.99,2.7-1.32,3.64-.33.94-.59,1.68-.79,2.23-.19.55-.33.95-.41,1.2-.07.17-.11.35-.12.54-.02.24.09.48.29.62ZM143.98,298.39l-7.36,19.69h15.39l-8.02-19.69Z"/>
  <path class="cls-1" d="M196.89,332.59c.59.35,1.26.54,1.94.54v.99h-17.04v-.99c.69,0,1.36-.18,1.94-.54.25-.25.38-.6.37-.95v-38.55c.01-.35-.12-.7-.37-.95-.59-.36-1.26-.54-1.94-.54v-.99h30.28c6.12,0,10.56,1.12,13.32,3.35,2.76,2.23,4.14,5.69,4.14,10.38,0,3.81-1.12,6.78-3.35,8.93-2.39,2.24-5.31,3.83-8.48,4.63l9.76,13.73c.48.88,1.39,1.45,2.4,1.49v.99h-17.21v-.99c1.21-.06,1.82-.55,1.82-1.49-.16-.42-.39-.81-.66-1.16-.44-.66-.99-1.46-1.65-2.4-.66-.94-1.39-1.94-2.19-3.02-.8-1.08-1.57-2.11-2.32-3.1-.75-.99-1.39-1.87-1.94-2.65-.55-.77-.91-1.3-1.08-1.57h-8.11v13.9c-.01.35.12.7.37.95ZM215.41,307.61c1.76-1.67,1.83-4.46.15-6.22-.05-.05-.1-.1-.15-.15-.91-.91-2.58-1.36-5-1.36h-13.9v9.1h13.9c2.43,0,4.09-.45,5-1.36Z"/>
  <path class="cls-1" d="M244.37,332.59c.25-.25.39-.6.37-.95v-38.55c.01-.36-.12-.7-.37-.95-.59-.36-1.26-.54-1.94-.54v-.99h17.04v.99c-.69,0-1.36.18-1.94.54-.25.25-.38.6-.37.95v38.55c-.01.35.12.7.37.95.59.35,1.26.54,1.94.54v.99h-17.04v-.99c.69,0,1.36-.18,1.94-.54Z"/>
  <path class="cls-1" d="M273.64,292.14c-.59-.36-1.26-.54-1.94-.54v-.99h19.94v.99c-.64-.01-1.27.11-1.86.37-.27.14-.44.4-.45.7.29.54.65,1.04,1.08,1.49.72.88,1.65,1.99,2.81,3.31s2.47,2.8,3.93,4.43,2.94,3.25,4.43,4.88c1.49,1.63,2.92,3.17,4.3,4.63,1.38,1.46,2.56,2.72,3.56,3.76v-22.09c0-.94-.58-1.43-1.74-1.49v-.99h15.14v.99c-.69,0-1.36.18-1.94.54-.25.25-.38.6-.37.95v38.55c-.01.35.12.7.37.95.59.35,1.26.54,1.94.54v.99h-15.72v-.99c.52.05,1.05-.04,1.53-.25.23-.14.37-.39.37-.66-.02-.23-.11-.44-.25-.62-.33-.45-.69-.88-1.08-1.28-.55-.61-1.37-1.48-2.44-2.61-1.08-1.13-2.5-2.65-4.26-4.55-1.77-1.9-3.94-4.27-6.53-7.11-2.59-2.84-5.71-6.3-9.35-10.38v25.97c-.01.35.12.7.37.95.59.35,1.26.54,1.94.54v.99h-15.72v-.99c.69,0,1.36-.18,1.94-.54.25-.25.38-.6.37-.95v-38.55c.01-.35-.12-.7-.37-.95Z"/>
  <path class="cls-1" d="M259.12,266.2h-2.5c0-69.52-56.35-125.88-125.87-125.88-69.52,0-125.88,56.35-125.88,125.87h0s-2.5.01-2.5.01c0-70.9,57.48-128.37,128.37-128.37s128.37,57.48,128.37,128.37Z"/>
  <path class="cls-1" d="M103.82,279.31c-1.03-1.33-2.05-2.68-3.02-4.03-.77-1.07-1.52-2.15-2.26-3.25-39.65-58.78-24.14-138.57,34.64-178.21,58.78-39.65,138.57-24.14,178.21,34.64,4.51,6.69,8.39,13.78,11.58,21.19l-2.29.99c-27.48-63.92-101.58-93.46-165.51-65.98-7.2,3.1-14.1,6.86-20.6,11.23-57.63,38.87-72.84,117.11-33.97,174.74,0,0,0,0,0,0,.73,1.08,1.47,2.14,2.22,3.19.95,1.32,1.95,2.65,2.96,3.95l-1.97,1.54Z"/>
  <path class="cls-1" d="M128.45,216.12c-68.65.05-125.22-53.88-128.45-122.45l2.5-.12c3.26,69.44,62.19,123.1,131.64,119.84,69.44-3.26,123.1-62.19,119.84-131.64-1.4-29.85-13.37-58.22-33.77-80.05l1.82-1.71c48.44,51.84,45.68,133.13-6.16,181.57-10.96,10.24-23.63,18.48-37.43,24.35-15.81,6.73-32.81,10.2-49.99,10.2Z"/>
  <circle class="cls-1" cx="255.3" cy="87.89" r="21.11" transform="translate(127.66 325.82) rotate(-80.78)"/>
  <circle class="cls-1" cx="38.88" cy="177.98" r="21.11"/>
  <circle class="cls-1" cx="80.13" cy="205.8" r="21.11"/>
  <circle class="cls-1" cx="128.57" cy="214.89" r="21.11"/>
  <circle class="cls-1" cx="177.83" cy="205.8" r="21.11"/>
  <circle class="cls-1" cx="218.4" cy="177.98" r="21.11"/>
  <circle class="cls-1" cx="245.94" cy="136.33" r="21.11" transform="translate(71.98 357.26) rotate(-80.78)"/>
</svg>