<?xml version="1.0" encoding="UTF-8"?>
<svg id="Ebene_1" xmlns="http://www.w3.org/2000/svg" version="1.1" viewBox="17.8 13.1 177.2 44.7">
  <!-- Generator: Adobe Illustrator 29.5.1, SVG Export Plug-In . SVG Version: 2.1.0 Build 141)  -->
  <defs>
    <style>
      .st0 {
        fill: #fff;
      }

      .st1 {
        fill: #b1b2b3;
      }
    </style>
  </defs>
  <g>
    <path class="st0" d="M85.8352904,25.9328469l.6943359-.8081055c.5644531.5639648,1.3359375.9394531,2.1142578.9394531.9648438,0,1.5195312-.4633789,1.5195312-1.1591797,0-.7324219-.5410156-.9663086-1.2705078-1.2807617l-1.1044922-.4838867c-.7509766-.3168945-1.5898438-.8979492-1.5898438-2.0507812,0-1.2236328,1.0732422-2.144043,2.5478516-2.144043.9257812,0,1.7832031.3925781,2.3632812.9863281l-.6142578.7514648c-.4892578-.4414062-1.046875-.7094727-1.7490234-.7094727-.8193359,0-1.359375.4013672-1.359375,1.046875,0,.6943359.6464844.9526367,1.2783203,1.2158203l1.0927734.4667969c.9208984.3901367,1.6054688.9541016,1.6054688,2.109375,0,1.2563477-1.0400391,2.2797852-2.7431641,2.2797852-1.0839844,0-2.0722656-.4360352-2.7851562-1.159668Z"/>
    <path class="st0" d="M92.4152378,25.4035501c0-1.2661133,1.0732422-1.9111328,3.5283203-2.1762695-.0097656-.6977539-.2617188-1.3325195-1.1435547-1.3325195-.6337891,0-1.2167969.2944336-1.7011719.6049805l-.4404297-.7866211c.5859375-.3769531,1.4111328-.7661133,2.3466797-.7661133,1.4453125,0,2.1025391.9282227,2.1025391,2.4648438v3.5366211h-.9580078l-.0927734-.6767578h-.0351562c-.5429688.4570312-1.171875.8208008-1.8828125.8208008-1.0009766,0-1.7236328-.6484375-1.7236328-1.6889648ZM93.1613316,19.2995462c0-.3691406.2753906-.6557617.6552734-.6557617.3808594,0,.65625.2866211.65625.6557617,0,.3686523-.2753906.6557617-.65625.6557617-.3798828,0-.6552734-.2871094-.6552734-.6557617ZM95.9435581,25.4557962v-1.4863281c-1.7939453.2197266-2.3964844.6708984-2.3964844,1.3486328,0,.5986328.4072266.8491211.9443359.8491211.5253906,0,.9453125-.2563477,1.4521484-.7114258ZM95.5412144,19.2995462c0-.3691406.2753906-.6557617.65625-.6557617.3798828,0,.6552734.2866211.6552734.6557617,0,.3686523-.2753906.6557617-.6552734.6557617-.3808594,0-.65625-.2871094-.65625-.6557617Z"/>
    <path class="st0" d="M98.397529,24.0261087c0-1.953125,1.3466797-3.0791016,2.8720703-3.0791016.7578125,0,1.2949219.3032227,1.7128906.6743164l-.5800781.7626953c-.3261719-.2919922-.6582031-.4780273-1.0761719-.4780273-1.0078125,0-1.7294922.8540039-1.7294922,2.1201172,0,1.265625.6933594,2.1074219,1.6953125,2.1074219.5009766,0,.9501953-.2441406,1.3017578-.5483398l.4873047.7734375c-.5361328.4770508-1.2148438.7338867-1.9023438.7338867-1.5761719,0-2.78125-1.1259766-2.78125-3.0664062Z"/>
    <path class="st0" d="M104.1884139,18.4367532h1.1645508v2.2719727l-.0458984,1.1704102c.5224609-.4990234,1.1103516-.9321289,1.9130859-.9321289,1.2431641,0,1.7949219.8203125,1.7949219,2.3076172v3.6938477h-1.1640625v-3.5439453c0-1.0332031-.3056641-1.453125-1.0175781-1.453125-.5605469,0-.9414062.2817383-1.4804688.8227539v4.1743164h-1.1645508v-8.5117188Z"/>
    <path class="st0" d="M110.2299178,26.2780618l.5566406-.7524414c.5136719.4077148,1.0244141.6757812,1.6787109.6757812.7099609,0,1.0546875-.3603516,1.0546875-.8154297,0-.5522461-.6650391-.7973633-1.3027344-1.0371094-.796875-.2949219-1.7011719-.7158203-1.7011719-1.6992188,0-.9731445.7822266-1.7026367,2.0712891-1.7026367.7685547,0,1.4130859.3134766,1.8779297.6777344l-.5449219.7299805c-.40625-.2993164-.8203125-.5166016-1.3115234-.5166016-.6708984,0-.9833984.3427734-.9833984.753418,0,.5141602.6162109.7104492,1.2666016.9511719.8203125.3085938,1.7373047.6694336,1.7373047,1.7739258,0,.9755859-.7734375,1.7758789-2.1992188,1.7758789-.8183594,0-1.6396484-.3486328-2.2001953-.8144531Z"/>
    <path class="st0" d="M115.8383162,19.2653665c0-.4223633.328125-.7026367.7587891-.7026367.4316406,0,.7587891.2802734.7587891.7026367,0,.409668-.3271484.7021484-.7587891.7021484-.4306641,0-.7587891-.2924805-.7587891-.7021484ZM116.0092147,21.0910501h1.1640625v5.8574219h-1.1640625v-5.8574219Z"/>
    <path class="st0" d="M118.45941,26.2780618l.5566406-.7524414c.5136719.4077148,1.0244141.6757812,1.6787109.6757812.7099609,0,1.0546875-.3603516,1.0546875-.8154297,0-.5522461-.6650391-.7973633-1.3027344-1.0371094-.796875-.2949219-1.7011719-.7158203-1.7011719-1.6992188,0-.9731445.7822266-1.7026367,2.0712891-1.7026367.7685547,0,1.4130859.3134766,1.8779297.6777344l-.5449219.7299805c-.40625-.2993164-.8203125-.5166016-1.3115234-.5166016-.6708984,0-.9833984.3427734-.9833984.753418,0,.5141602.6162109.7104492,1.2666016.9511719.8203125.3085938,1.7373047.6694336,1.7373047,1.7739258,0,.9755859-.7734375,1.7758789-2.1992188,1.7758789-.8183594,0-1.6396484-.3486328-2.2001953-.8144531Z"/>
    <path class="st0" d="M123.9027694,24.0261087c0-1.953125,1.3466797-3.0791016,2.8720703-3.0791016.7578125,0,1.2949219.3032227,1.7128906.6743164l-.5800781.7626953c-.3261719-.2919922-.6582031-.4780273-1.0761719-.4780273-1.0078125,0-1.7294922.8540039-1.7294922,2.1201172,0,1.265625.6933594,2.1074219,1.6953125,2.1074219.5009766,0,.9501953-.2441406,1.3017578-.5483398l.4873047.7734375c-.5361328.4770508-1.2148438.7338867-1.9023438.7338867-1.5761719,0-2.78125-1.1259766-2.78125-3.0664062Z"/>
    <path class="st0" d="M129.6946308,18.4367532h1.1640625v2.2719727l-.0458984,1.1704102c.5224609-.4990234,1.1103516-.9321289,1.9130859-.9321289,1.2431641,0,1.7949219.8203125,1.7949219,2.3076172v3.6938477h-1.1640625v-3.5439453c0-1.0332031-.3056641-1.453125-1.0175781-1.453125-.5605469,0-.9414062.2817383-1.4804688.8227539v4.1743164h-1.1640625v-8.5117188Z"/>
    <path class="st0" d="M135.9563496,24.0261087c0-1.9047852,1.3007812-3.0791016,2.6630859-3.0791016,1.5341797,0,2.3740234,1.1054688,2.3740234,2.7631836,0,.2333984-.0224609.4667969-.0527344.6103516h-3.8417969c.0908203,1.1499023.8085938,1.8579102,1.8466797,1.8579102.5341797,0,.9814453-.1704102,1.4130859-.4482422l.40625.7426758c-.5341797.3544922-1.1953125.6196289-1.9677734.6196289-1.5869141,0-2.8408203-1.1386719-2.8408203-3.0664062ZM139.9758808,23.5090188c0-1.0507812-.4697266-1.6484375-1.3339844-1.6484375-.7597656,0-1.4345703.5932617-1.5546875,1.6484375h2.8886719Z"/>
    <path class="st0" d="M149.4319091,26.9484573h1.2460938l-2.6152344-7.8588867h-1.3554688l-2.6152344,7.8588867h1.1992188l.6915894-2.2753906h2.7642212l.6848145,2.2753906ZM146.2657103,23.7424026l.3312378-1.0898438c.2675781-.8579102.5097656-1.7299805.7412109-2.6225586h.0478516c.2421875.8867188.4853516,1.7646484.7529297,2.6225586l.3280029,1.0898438h-2.2012329Z"/>
    <path class="st0" d="M151.8313496,18.4367532h1.1416016v5.5634766h.0351562l2.3505859-2.9091797h1.2822266l-1.9833984,2.3681641,2.2167969,3.4892578h-1.2685547l-1.6171875-2.6918945-1.015625,1.1767578v1.5151367h-1.1416016v-8.5117188Z"/>
    <path class="st0" d="M157.6213886,25.4035501c0-1.2661133,1.0732422-1.9111328,3.5283203-2.1762695-.0097656-.6977539-.2617188-1.3325195-1.1435547-1.3325195-.6337891,0-1.2167969.2944336-1.7011719.6049805l-.4404297-.7866211c.5859375-.3769531,1.4111328-.7661133,2.3466797-.7661133,1.4453125,0,2.1025391.9282227,2.1025391,2.4648438v3.5366211h-.9580078l-.0927734-.6767578h-.0351562c-.5429688.4570312-1.171875.8208008-1.8828125.8208008-1.0009766,0-1.7236328-.6484375-1.7236328-1.6889648ZM161.1497089,25.4557962v-1.4863281c-1.7939453.2197266-2.3964844.6708984-2.3964844,1.3486328,0,.5986328.4072266.8491211.9443359.8491211.5253906,0,.9453125-.2563477,1.4521484-.7114258Z"/>
    <path class="st0" d="M163.7756855,24.0261087c0-1.9038086,1.1982422-3.0791016,2.5097656-3.0791016.6728516,0,1.1074219.2524414,1.59375.6630859l-.046875-.9775391v-2.1958008h1.1640625v8.5117188h-.9570312l-.09375-.6655273h-.0351562c-.4453125.4458008-1.0595703.8095703-1.7265625.8095703-1.4619141,0-2.4082031-1.1235352-2.4082031-3.0664062ZM167.8323261,25.3864602v-2.9155273c-.4550781-.4057617-.8808594-.5537109-1.3212891-.5537109-.8496094,0-1.5361328.8144531-1.5361328,2.0976562,0,1.3452148.5380859,2.1069336,1.4824219,2.1069336.5019531,0,.9316406-.2348633,1.375-.7353516Z"/>
    <path class="st0" d="M170.5081074,24.0261087c0-1.9047852,1.3007812-3.0791016,2.6630859-3.0791016,1.5341797,0,2.3740234,1.1054688,2.3740234,2.7631836,0,.2333984-.0224609.4667969-.0527344.6103516h-3.8417969c.0908203,1.1499023.8085938,1.8579102,1.8466797,1.8579102.5341797,0,.9814453-.1704102,1.4130859-.4482422l.40625.7426758c-.5341797.3544922-1.1953125.6196289-1.9677734.6196289-1.5869141,0-2.8408203-1.1386719-2.8408203-3.0664062ZM174.5276386,23.5090188c0-1.0507812-.4697266-1.6484375-1.3339844-1.6484375-.7597656,0-1.4345703.5932617-1.5546875,1.6484375h2.8886719Z"/>
    <path class="st0" d="M177.0286152,21.0910501h.9570312l.09375.8266602h.0351562c.5048828-.5375977,1.0976562-.9707031,1.8115234-.9707031.8789062,0,1.3632812.4116211,1.6171875,1.0859375.5869141-.6303711,1.1835938-1.0859375,1.9101562-1.0859375,1.2177734,0,1.7939453.8203125,1.7939453,2.3076172v3.6938477h-1.1640625v-3.5439453c0-1.0332031-.3183594-1.453125-1.0048828-1.453125-.4169922,0-.8564453.2705078-1.3583984.8227539v4.1743164h-1.1640625v-3.5439453c0-1.0332031-.3193359-1.453125-1.0048828-1.453125-.4042969,0-.8574219.2705078-1.3583984.8227539v4.1743164h-1.1640625v-5.8574219Z"/>
    <path class="st0" d="M186.8987324,19.2653665c0-.4223633.328125-.7026367.7587891-.7026367.4316406,0,.7587891.2802734.7587891.7026367,0,.409668-.3271484.7021484-.7587891.7021484-.4306641,0-.7587891-.2924805-.7587891-.7021484ZM187.0696308,21.0910501h1.1640625v5.8574219h-1.1640625v-5.8574219Z"/>
    <path class="st0" d="M189.7073261,24.0261087c0-1.9047852,1.3007812-3.0791016,2.6630859-3.0791016,1.5341797,0,2.3740234,1.1054688,2.3740234,2.7631836,0,.2333984-.0224609.4667969-.0527344.6103516h-3.8417969c.0908203,1.1499023.8085938,1.8579102,1.8466797,1.8579102.5341797,0,.9814453-.1704102,1.4130859-.4482422l.40625.7426758c-.5341797.3544922-1.1953125.6196289-1.9677734.6196289-1.5869141,0-2.8408203-1.1386719-2.8408203-3.0664062ZM193.7268574,23.5090188c0-1.0507812-.4697266-1.6484375-1.3339844-1.6484375-.7597656,0-1.4345703.5932617-1.5546875,1.6484375h2.8886719Z"/>
    <path class="st0" d="M85.8958373,38.0261087c0-1.9038086,1.1982422-3.0791016,2.5097656-3.0791016.6728516,0,1.1074219.2524414,1.59375.6630859l-.046875-.9775391v-2.1958008h1.1640625v8.5112305h-.9570312l-.09375-.6650391h-.0351562c-.4453125.4453125-1.0595703.8095703-1.7265625.8095703-1.4619141,0-2.4082031-1.1240234-2.4082031-3.0664062ZM89.9524779,39.3864602v-2.9155273c-.4550781-.4057617-.8808594-.5537109-1.3212891-.5537109-.8496094,0-1.5361328.8144531-1.5361328,2.097168,0,1.3457031.5380859,2.1074219,1.4824219,2.1074219.5019531,0,.9316406-.2353516,1.375-.7353516Z"/>
    <path class="st0" d="M92.6282592,38.0261087c0-1.9047852,1.3007812-3.0791016,2.6630859-3.0791016,1.5341797,0,2.3740234,1.1054688,2.3740234,2.7626953,0,.2333984-.0224609.4667969-.0527344.6103516h-3.8417969c.0908203,1.1503906.8085938,1.8583984,1.8466797,1.8583984.5341797,0,.9814453-.1708984,1.4130859-.4482422l.40625.7421875c-.5341797.3544922-1.1953125.6201172-1.9677734.6201172-1.5869141,0-2.8408203-1.1386719-2.8408203-3.0664062ZM96.6477904,37.5085305c0-1.050293-.4697266-1.6479492-1.3339844-1.6479492-.7597656,0-1.4345703.5932617-1.5546875,1.6479492h2.8886719Z"/>
    <path class="st0" d="M99.148767,35.0910501h.9570312l.09375,1.0566406h.0351562c.4121094-.7524414,1.0205078-1.2006836,1.6650391-1.2006836.2773438,0,.4619141.0351562.6425781.1201172l-.2099609,1.015625c-.203125-.0605469-.34375-.0961914-.5830078-.0961914-.4824219,0-1.0605469.3398438-1.4365234,1.2856445v3.6757812h-1.1640625v-5.8569336Z"/>
    <path class="st0" d="M105.6905323,33.0895852h1.2128906l.7607422,4.1396484c.140625.8408203.2871094,1.6816406.4287109,2.5224609h.0478516c.1689453-.8408203.3505859-1.6875.5322266-2.5224609l1.0351562-4.1396484h1.0439453l1.0341797,4.1396484c.1816406.8242188.3642578,1.6757812.5458984,2.5224609h.0478516c.140625-.8466797.2744141-1.6923828.4160156-2.5224609l.7607422-4.1396484h1.1318359l-1.5742188,7.8583984h-1.4375l-1.0927734-4.4604492c-.1328125-.6123047-.2539062-1.1967773-.3642578-1.7978516h-.0478516c-.1152344.6010742-.2441406,1.1855469-.3769531,1.7978516l-1.0683594,4.4604492h-1.4150391l-1.6210937-7.8583984Z"/>
    <path class="st0" d="M115.8936573,33.2653665c0-.4223633.328125-.7026367.7587891-.7026367.4316406,0,.7587891.2802734.7587891.7026367,0,.409668-.3271484.7021484-.7587891.7021484-.4306641,0-.7587891-.2924805-.7587891-.7021484ZM116.0645558,35.0910501h1.1640625v5.8569336h-1.1640625v-5.8569336Z"/>
    <path class="st0" d="M118.5147511,40.2780618l.5566406-.7529297c.5136719.4082031,1.0244141.6757812,1.6787109.6757812.7099609,0,1.0546875-.3603516,1.0546875-.8154297,0-.5517578-.6650391-.796875-1.3027344-1.0371094-.796875-.2949219-1.7011719-.7158203-1.7011719-1.6987305,0-.9731445.7822266-1.7026367,2.0712891-1.7026367.7685547,0,1.4130859.3134766,1.8779297.6777344l-.5449219.7299805c-.40625-.2993164-.8203125-.5166016-1.3115234-.5166016-.6708984,0-.9833984.3427734-.9833984.753418,0,.5136719.6162109.7099609,1.2666016.9511719.8203125.3085938,1.7373047.6689453,1.7373047,1.7734375,0,.9755859-.7734375,1.7763672-2.1992188,1.7763672-.8183594,0-1.6396484-.3486328-2.2001953-.8144531Z"/>
    <path class="st0" d="M123.8126026,40.2780618l.5566406-.7529297c.5136719.4082031,1.0244141.6757812,1.6787109.6757812.7099609,0,1.0546875-.3603516,1.0546875-.8154297,0-.5517578-.6650391-.796875-1.3027344-1.0371094-.796875-.2949219-1.7011719-.7158203-1.7011719-1.6987305,0-.9731445.7822266-1.7026367,2.0712891-1.7026367.7685547,0,1.4130859.3134766,1.8779297.6777344l-.5449219.7299805c-.40625-.2993164-.8203125-.5166016-1.3115234-.5166016-.6708984,0-.9833984.3427734-.9833984.753418,0,.5136719.6162109.7099609,1.2666016.9511719.8203125.3085938,1.7373047.6689453,1.7373047,1.7734375,0,.9755859-.7734375,1.7763672-2.1992188,1.7763672-.8183594,0-1.6396484-.3486328-2.2001953-.8144531Z"/>
    <path class="st0" d="M129.2510792,38.0261087c0-1.9047852,1.3007812-3.0791016,2.6630859-3.0791016,1.5341797,0,2.3740234,1.1054688,2.3740234,2.7626953,0,.2333984-.0224609.4667969-.0527344.6103516h-3.8417969c.0908203,1.1503906.8085938,1.8583984,1.8466797,1.8583984.5341797,0,.9814453-.1708984,1.4130859-.4482422l.40625.7421875c-.5341797.3544922-1.1953125.6201172-1.9677734.6201172-1.5869141,0-2.8408203-1.1386719-2.8408203-3.0664062ZM133.2706105,37.5085305c0-1.050293-.4697266-1.6479492-1.3339844-1.6479492-.7597656,0-1.4345703.5932617-1.5546875,1.6479492h2.8886719Z"/>
    <path class="st0" d="M135.771587,35.0910501h.9570312l.09375.8208008h.0351562c.5429688-.5317383,1.1425781-.9648438,1.9453125-.9648438,1.2431641,0,1.7949219.8203125,1.7949219,2.3076172v3.6933594h-1.1640625v-3.5439453c0-1.0327148-.3056641-1.4526367-1.0175781-1.4526367-.5605469,0-.9414062.2817383-1.4804688.8227539v4.1738281h-1.1640625v-5.8569336Z"/>
    <path class="st0" d="M141.8243214,40.2780618l.5566406-.7529297c.5136719.4082031,1.0244141.6757812,1.6787109.6757812.7099609,0,1.0546875-.3603516,1.0546875-.8154297,0-.5517578-.6650391-.796875-1.3027344-1.0371094-.796875-.2949219-1.7011719-.7158203-1.7011719-1.6987305,0-.9731445.7822266-1.7026367,2.0712891-1.7026367.7685547,0,1.4130859.3134766,1.8779297.6777344l-.5449219.7299805c-.40625-.2993164-.8203125-.5166016-1.3115234-.5166016-.6708984,0-.9833984.3427734-.9833984.753418,0,.5136719.6162109.7099609,1.2666016.9511719.8203125.3085938,1.7373047.6689453,1.7373047,1.7734375,0,.9755859-.7734375,1.7763672-2.1992188,1.7763672-.8183594,0-1.6396484-.3486328-2.2001953-.8144531Z"/>
    <path class="st0" d="M147.126925,38.0261087c0-1.953125,1.3466797-3.0791016,2.8720703-3.0791016.7578125,0,1.2949219.3032227,1.7128906.6743164l-.5800781.7626953c-.3271484-.2919922-.6582031-.4780273-1.0761719-.4780273-1.0078125,0-1.7294922.8535156-1.7294922,2.1201172,0,1.265625.6933594,2.1074219,1.6953125,2.1074219.5009766,0,.9501953-.2441406,1.3017578-.5488281l.4873047.7734375c-.5361328.4775391-1.2148438.734375-1.9023438.734375-1.5761719,0-2.78125-1.1259766-2.78125-3.0664062Z"/>
    <path class="st0" d="M152.91781,32.4367532h1.1640625v2.2719727l-.0458984,1.1704102c.5224609-.4990234,1.1103516-.9321289,1.9130859-.9321289,1.2431641,0,1.7949219.8203125,1.7949219,2.3076172v3.6933594h-1.1640625v-3.5439453c0-1.0327148-.3056641-1.4526367-1.0175781-1.4526367-.5605469,0-.9414062.2817383-1.4804688.8227539v4.1738281h-1.1640625v-8.5112305Z"/>
    <path class="st0" d="M159.1941771,39.4030618c0-1.265625,1.0732422-1.9111328,3.5283203-2.1757812-.0097656-.6977539-.2617188-1.3325195-1.1435547-1.3325195-.6337891,0-1.2167969.2944336-1.7011719.6049805l-.4404297-.7866211c.5859375-.3769531,1.4111328-.7661133,2.3466797-.7661133,1.4453125,0,2.1025391.9282227,2.1025391,2.4648438v3.5361328h-.9580078l-.0927734-.6767578h-.0351562c-.5429688.4570312-1.171875.8212891-1.8828125.8212891-1.0009766,0-1.7236328-.6484375-1.7236328-1.6894531ZM162.7224975,39.4557962v-1.4863281c-1.7939453.2197266-2.3964844.6708984-2.3964844,1.3486328,0,.5986328.4072266.8486328.9443359.8486328.5253906,0,.9453125-.2558594,1.4521484-.7109375Z"/>
    <path class="st0" d="M167.7664428,33.2287308c.2041016,0,.4326172.0483398.6503906.1455078l.2333984-.878418c-.2646484-.1083984-.6318359-.203125-1.0185547-.203125-1.2685547,0-1.8183594.8164062-1.8183594,2.0175781v.78479l-.7910156.0550537v.8774414h.7910156v4.9204102h1.1650391v-4.9204102h1.1972656v-.9365234h-1.1972656v-.7895508c0-.7216797.2646484-1.0727539.7880859-1.0727539Z"/>
    <path class="st0" d="M169.9217162,39.063218v-3.0356445h-.8544922v-.8774414l.9111328-.059082.1386719-1.6225586h.96875v1.6225586h1.5449219v.9365234h-1.5449219v3.043457c0,.7041016.2470703,1.0849609.8720703,1.0849609.2041016,0,.4589844-.0732422.6416016-.1464844l.2099609.8671875c-.3242188.1083984-.7236328.2158203-1.1367188.2158203-1.2929688,0-1.7509766-.8193359-1.7509766-2.0292969Z"/>
    <path class="st0" d="M173.4373412,38.0261087c0-1.9047852,1.3007812-3.0791016,2.6630859-3.0791016,1.5341797,0,2.3740234,1.1054688,2.3740234,2.7626953,0,.2333984-.0224609.4667969-.0527344.6103516h-3.8417969c.0908203,1.1503906.8085938,1.8583984,1.8466797,1.8583984.5341797,0,.9814453-.1708984,1.4130859-.4482422l.40625.7421875c-.5341797.3544922-1.1953125.6201172-1.9677734.6201172-1.5869141,0-2.8408203-1.1386719-2.8408203-3.0664062ZM177.4568725,37.5085305c0-1.050293-.4697266-1.6479492-1.3339844-1.6479492-.7597656,0-1.4345703.5932617-1.5546875,1.6479492h2.8886719Z"/>
    <path class="st0" d="M179.957849,35.0910501h.9570312l.09375.8208008h.0351562c.5429688-.5317383,1.1425781-.9648438,1.9453125-.9648438,1.2431641,0,1.7949219.8203125,1.7949219,2.3076172v3.6933594h-1.1640625v-3.5439453c0-1.0327148-.3056641-1.4526367-1.0175781-1.4526367-.5605469,0-.9414062.2817383-1.4804688.8227539v4.1738281h-1.1640625v-5.8569336Z"/>
    <path class="st0" d="M85.7415404,54.3259133l2.9365234-4.2988281h-2.609375v-.9365234h4.0751953v.6230469l-2.9375,4.2978516h3.0341797v.9365234h-4.4990234v-.6220703Z"/>
    <path class="st0" d="M91.4085326,52.7848977v-3.6943359h1.1650391v3.5439453c0,1.0332031.3056641,1.453125,1.0166016,1.453125.5615234,0,.9414062-.2705078,1.4462891-.9072266v-4.0898438h1.1640625v5.8574219h-.9580078l-.0927734-.8925781h-.0351562c-.5302734.6259766-1.1074219,1.0371094-1.9101562,1.0371094-1.2441406,0-1.7958984-.8203125-1.7958984-2.3076172Z"/>
    <path class="st0" d="M100.9682336,47.0895852h1.1767578v6.8652344h3.355957v.9931641h-4.5327148v-7.8583984Z"/>
    <path class="st0" d="M106.2557006,52.0261087c0-1.9052734,1.3007812-3.0791016,2.6630859-3.0791016,1.5341797,0,2.3740234,1.1054688,2.3740234,2.7626953,0,.2333984-.0224609.4667969-.0527344.6103516h-3.8417969c.0908203,1.1503906.8085938,1.8583984,1.8466797,1.8583984.5341797,0,.9814453-.1708984,1.4130859-.4482422l.40625.7421875c-.5341797.3544922-1.1953125.6201172-1.9677734.6201172-1.5869141,0-2.8408203-1.1386719-2.8408203-3.0664062ZM110.2752318,51.5085305c0-1.0507812-.4697266-1.6484375-1.3339844-1.6484375-.7597656,0-1.4345703.59375-1.5546875,1.6484375h2.8886719Z"/>
    <path class="st0" d="M112.5838256,47.2653665c0-.4228516.328125-.703125.7587891-.703125.4316406,0,.7587891.2802734.7587891.703125,0,.4091797-.3271484.7021484-.7587891.7021484-.4306641,0-.7587891-.2929688-.7587891-.7021484ZM112.754724,49.0905618h1.1640625v5.8574219h-1.1640625v-5.8574219Z"/>
    <path class="st0" d="M115.7732787,49.0905618h.9570312l.09375.6533203h.0351562c.5136719-.4335938,1.1582031-.796875,1.8212891-.796875,1.4912109,0,2.3134766,1.1738281,2.3134766,2.9824219,0,2-1.1982422,3.1630859-2.5195312,3.1630859-.5292969,0-1.0605469-.2412109-1.5712891-.6630859l.0341797,1v1.9208984h-1.1640625v-8.2597656ZM119.7947631,51.9411477c0-1.2363281-.4150391-2.0244141-1.421875-2.0244141-.4638672,0-.9189453.2470703-1.4355469.7363281v2.9150391c.4804688.40625.9462891.5537109,1.3115234.5537109.8847656,0,1.5458984-.7890625,1.5458984-2.1806641Z"/>
    <path class="st0" d="M121.7918334,54.3259133l2.9365234-4.2988281h-2.609375v-.9365234h4.0751953v.6230469l-2.9375,4.2978516h3.0341797v.9365234h-4.4990234v-.6220703Z"/>
    <path class="st0" d="M127.458904,47.2653665c0-.4228516.328125-.703125.7587891-.703125.4316406,0,.7587891.2802734.7587891.703125,0,.4091797-.3271484.7021484-.7587891.7021484-.4306641,0-.7587891-.2929688-.7587891-.7021484ZM127.6298024,49.0905618h1.1640625v5.8574219h-1.1640625v-5.8574219Z"/>
    <path class="st0" d="M130.2069509,56.0456399c0-.4980469.3134766-.9521484.8525391-1.2910156v-.0478516c-.2998047-.1904297-.5263672-.5019531-.5263672-.9677734,0-.4707031.3271484-.8652344.6455078-1.0898438v-.0478516c-.3935547-.3007812-.7646484-.8642578-.7646484-1.5605469,0-1.3095703,1.0449219-2.09375,2.25-2.09375.3232422,0,.6210938.0605469.8457031.1435547h2.0664062v.8798828h-1.1416016c.2373047.2451172.4121094.6494141.4121094,1.1044922,0,1.2763672-.9658203,2.0166016-2.1826172,2.0166016-.2675781,0-.5722656-.0625-.8359375-.1787109-.1953125.1640625-.3339844.3378906-.3339844.6318359,0,.3525391.2402344.5878906.9921875.5878906h1.0957031c1.3789062,0,2.0898438.4306641,2.0898438,1.4199219,0,1.1181641-1.1787109,2.0439453-3.0351562,2.0439453-1.4179688,0-2.4296875-.5351562-2.4296875-1.5507812ZM134.5399587,55.735093c0-.5019531-.3886719-.6630859-1.1132812-.6630859h-.9169922c-.2646484,0-.53125-.0244141-.7744141-.0849609-.3720703.2705078-.5322266.5800781-.5322266.8876953,0,.5859375.6054688.9433594,1.6054688.9433594,1.0380859,0,1.7314453-.5195312,1.7314453-1.0830078ZM133.8055837,51.0407571c0-.7978516-.5039062-1.2705078-1.1416016-1.2705078-.6367188,0-1.140625.4658203-1.140625,1.2705078,0,.8037109.5166016,1.2949219,1.140625,1.2949219.625,0,1.1416016-.4912109,1.1416016-1.2949219Z"/>
  </g>
  <path class="st1" d="M71.0066268,57.7494354h-6.5465983c-.2947619-.3613285-.5942827-.722657-.8985624-1.0792266-9.9316591-11.5671262-24.2610101-18.3086654-39.4508521-18.5986684-.3423219-.0095178-5.9143024-.0095178-6.2566243-.0095178v-5.2296876c.3423219,0,5.9143024,0,6.2566243.0047589,16.7159705.2947619,32.4953653,7.7019093,43.4159189,20.4290475,1.2408553,1.4405551,2.4008962,2.9381591,3.4800938,4.4832941Z"/>
  <path class="st1" d="M29.5577279,23.5273995v5.1080322c15.8275533,1.5007841,30.5441611,8.7922363,41.4091513,20.3925171h6.9556885c-12.0629883-14.7234497-29.5072573-23.8548067-48.3648398-25.5005493Z"/>
  <path class="st0" d="M24.110614,32.8370939c15.1898421-.290003,29.519193-7.0740348,39.4508521-18.641161.3042797-.3565696.6038005-.7178981.8985624-1.0792266h6.5465983c-1.0791976,1.545135-2.2392386,3.0427389-3.4800938,4.4832941-10.9205536,12.7271381-26.8818561,20.1669817-43.5978266,20.4617436-.3423219.0047589-6.0747167.0002786-6.0747167.0002786v-5.2296876l6.2566243.0047589Z"/>
  <path class="st0" d="M46.3647957,16.4355416c-4.6164551,3.8760986-10.4370728,6.5804443-16.8070679,7.0918579v5.1080322c9.9709473-1.0585938,18.5311279-5.1361084,24.5281372-12.1998901h-7.7210693Z"/>
  <path class="st1" d="M46.4002673,54.9512039c-4.4698933-3.4899101-10.3784614-7.4957813-23.9616841-6.7775879l.0009908-5.5c18.3586117-.7294008,25.2517216,5.5615618,31.6817017,12.2775879h-7.7210083Z"/>
  <path class="st0" d="M70.9094276,21.5488933c-12.0737915,12.9836426-29.3832447,21.1247227-48.4698536,21.1247227l-.0009908,5.5c22.4536133,0,42.6129342-10.3979161,55.7459909-26.6247227h-7.2751465Z"/>
</svg>